<?xml version="1.0" encoding="utf-8"?>
<svg xmlns="http://www.w3.org/2000/svg" style="margin: auto; background: none; display: block; shape-rendering: auto;" width="281" height="95" preserveAspectRatio="xMidYMid">
<style type="text/css">
  text {
    text-anchor: middle; font-size: 80px; opacity: 0;
  }
</style>
<g style="transform-origin:140.5px 47.5px;transform:scale(1)">
<g transform="translate(140.5,47.5)">
  <g transform="translate(0,0)"><g class="path" style="opacity: 1; transform-origin: -57.04px -6.46815px; animation: 1s linear -0.528s infinite normal forwards running blink-c7c7bc8c-7157-47bb-93ed-2ef565c9ca12;"><path d="M7.04 0L7.04-54.56L40.48-54.56L40.48-48.40L13.76-48.40L13.76-30.96L38.56-30.96L38.56-24.96L13.76-24.96L13.76-6.16L41.28-6.16L41.28 0L7.04 0" fill="#8a2b06" stroke="none" stroke-width="none" transform="translate(-81.20000648498535,20.81184638977051)" style="fill: rgb(138, 43, 6);"></path></g><g class="path" style="opacity: 1; transform-origin: -20.52px 0.286131px; animation: 1s linear -0.396s infinite normal forwards running blink-c7c7bc8c-7157-47bb-93ed-2ef565c9ca12;"><path d="M50.96 0L50.96-33.76L50.96-33.76Q50.96-35.60 50.56-39.52L50.56-39.52L56.48-40.32L57.12-34.48L57.20-34.48L57.20-34.48Q58.64-36.32 60-37.68L60-37.68L60-37.68Q61.36-39.04 62.84-40.04L62.84-40.04L62.84-40.04Q64.32-41.04 65.68-41.04L65.68-41.04L65.68-41.04Q67.52-41.12 70.80-40.64L70.80-40.64L69.36-34.48L69.36-34.48Q66.72-34.96 65.68-34.88L65.68-34.88L65.68-34.88Q64.32-34.88 62.80-33.60L62.80-33.60L62.80-33.60Q61.28-32.32 60.16-30.88L60.16-30.88L60.16-30.88Q58.72-29.12 57.36-26.88L57.36-26.88L57.36 0L50.96 0" fill="#8a2b06" stroke="none" stroke-width="none" transform="translate(-81.20000648498535,20.81184638977051)" style="fill: rgb(138, 43, 6);"></path></g><g class="path" style="opacity: 1; transform-origin: 6.43999px 0.286131px; animation: 1s linear -0.264s infinite normal forwards running blink-c7c7bc8c-7157-47bb-93ed-2ef565c9ca12;"><path d="M77.92 0L77.92-33.76L77.92-33.76Q77.92-35.60 77.52-39.52L77.52-39.52L83.44-40.32L84.08-34.48L84.16-34.48L84.16-34.48Q85.60-36.32 86.96-37.68L86.96-37.68L86.96-37.68Q88.32-39.04 89.80-40.04L89.80-40.04L89.80-40.04Q91.28-41.04 92.64-41.04L92.64-41.04L92.64-41.04Q94.48-41.12 97.76-40.64L97.76-40.64L96.32-34.48L96.32-34.48Q93.68-34.96 92.64-34.88L92.64-34.88L92.64-34.88Q91.28-34.88 89.76-33.60L89.76-33.60L89.76-33.60Q88.24-32.32 87.12-30.88L87.12-30.88L87.12-30.88Q85.68-29.12 84.32-26.88L84.32-26.88L84.32 0L77.92 0" fill="#8a2b06" stroke="none" stroke-width="none" transform="translate(-81.20000648498535,20.81184638977051)" style="fill: rgb(138, 43, 6);"></path></g><g class="path" style="opacity: 1; transform-origin: 39.6px 0.811846px; animation: 1s linear -0.132s infinite normal forwards running blink-c7c7bc8c-7157-47bb-93ed-2ef565c9ca12;"><path d="M108.16-19.92L108.16-19.92L108.16-19.92Q108.16-12.16 111.64-8.36L111.64-8.36L111.64-8.36Q115.12-4.56 121.04-4.56L121.04-4.56L121.04-4.56Q126.88-4.56 130.16-8.32L130.16-8.32L130.16-8.32Q133.44-12.08 133.44-19.60L133.44-19.60L133.44-19.60Q133.44-27.60 129.96-31.52L129.96-31.52L129.96-31.52Q126.48-35.44 120.48-35.44L120.48-35.44L120.48-35.44Q114.48-35.44 111.32-31.56L111.32-31.56L111.32-31.56Q108.16-27.68 108.16-19.92zM101.36-20L101.36-20L101.36-20Q101.36-26.08 103.28-30.12L103.28-30.12L103.28-30.12Q105.20-34.16 108.16-36.60L108.16-36.60L108.16-36.60Q111.12-39.04 114.52-40.04L114.52-40.04L114.52-40.04Q117.92-41.04 120.96-41.04L120.96-41.04L120.96-41.04Q123.84-41.04 127.24-40.12L127.24-40.12L127.24-40.12Q130.64-39.20 133.52-36.84L133.52-36.84L133.52-36.84Q136.40-34.48 138.32-30.52L138.32-30.52L138.32-30.52Q140.24-26.56 140.24-20.48L140.24-20.48L140.24-20.48Q140.24-14.16 138.28-10L138.28-10L138.28-10Q136.32-5.84 133.36-3.40L133.36-3.40L133.36-3.40Q130.40-0.96 126.96 0.04L126.96 0.04L126.96 0.04Q123.52 1.04 120.56 1.04L120.56 1.04L120.56 1.04Q117.52 1.04 114.16 0.08L114.16 0.08L114.16 0.08Q110.80-0.88 107.96-3.24L107.96-3.24L107.96-3.24Q105.12-5.60 103.24-9.68L103.24-9.68L103.24-9.68Q101.36-13.76 101.36-20" fill="#8a2b06" stroke="none" stroke-width="none" transform="translate(-81.20000648498535,20.81184638977051)" style="fill: rgb(138, 43, 6);"></path></g><g class="path" style="opacity: 1; transform-origin: 78.12px 0.286131px; animation: 1s linear 0s infinite normal forwards running blink-c7c7bc8c-7157-47bb-93ed-2ef565c9ca12;"><path d="M149.60 0L149.60-33.76L149.60-33.76Q149.60-35.60 149.20-39.52L149.20-39.52L155.12-40.32L155.76-34.48L155.84-34.48L155.84-34.48Q157.28-36.32 158.64-37.68L158.64-37.68L158.64-37.68Q160-39.04 161.48-40.04L161.48-40.04L161.48-40.04Q162.96-41.04 164.32-41.04L164.32-41.04L164.32-41.04Q166.16-41.12 169.44-40.64L169.44-40.64L168-34.48L168-34.48Q165.36-34.96 164.32-34.88L164.32-34.88L164.32-34.88Q162.96-34.88 161.44-33.60L161.44-33.60L161.44-33.60Q159.92-32.32 158.80-30.88L158.80-30.88L158.80-30.88Q157.36-29.12 156-26.88L156-26.88L156 0L149.60 0" fill="#8a2b06" stroke="none" stroke-width="none" transform="translate(-81.20000648498535,20.81184638977051)" style="fill: rgb(138, 43, 6);"></path></g></g>
</g>
</g>
<style id="blink-c7c7bc8c-7157-47bb-93ed-2ef565c9ca12" data-anikit="">@keyframes blink-c7c7bc8c-7157-47bb-93ed-2ef565c9ca12 {
  0% { opacity: 1; }
  51.975% { opacity: 1; }
  146.025% { opacity: 0; }
  5.95% { opacity: 0; }
  100% { opacity: 1; }
}</style></svg>